<?xml version="1.0" encoding="UTF-8"?>
<svg width="1200px" height="1200px" viewBox="0 0 1200 1200" version="1.1" xmlns="http://www.w3.org/2000/svg" xmlns:xlink="http://www.w3.org/1999/xlink">
    <!-- Generator: Sketch 54.1 (76490) - https://sketchapp.com -->
    <title>Group 29</title>
    <desc>Created with Sketch.</desc>
    <g id="Page-2" stroke="none" stroke-width="1" fill="none" fill-rule="evenodd">
        <g id="Artboard" transform="translate(-8254.000000, -3307.000000)">
            <g id="Group-29" transform="translate(8254.000000, 3307.000000)">
                <rect id="Rectangle-Copy-23" x="0" y="0" width="1200" height="1200"></rect>
                <g id="资源-159" transform="translate(108.000000, 165.000000)" fill-rule="nonzero">
                    <path d="M881.858515,222.487876 C880.25068,183.233798 848.015084,152.184225 808.678164,152 L485.871505,161.014003 C467.255831,161.554848 449.546954,169.163676 436.352801,182.290297 C423.349325,171.845318 407.180338,166.118987 390.493115,166.048851 C379.842744,166.024936 369.318957,168.354393 359.676056,172.870258 L69.2313748,307.999089 C51.665538,316.080361 38.053546,330.82638 31.4136243,348.96747 C24.7737027,367.10856 25.6545566,387.14559 33.8608719,404.635693 L247.547496,858.01566 C259.779811,883.666526 285.693642,900.003853 314.141615,899.999798 C324.818247,900.024971 335.368779,897.695739 345.039986,893.178391 L530.511519,802.551122 L823.802103,802.551122 C864.457853,801.414221 897.87688,762.921993 896.982454,722.886829 L881.858515,222.487876 Z" id="Path" fill="#6B6F6E" opacity="0.3"></path>
                    <path d="M662.869474,549.151958 C670.182021,564.761711 670.985642,582.635707 665.103368,598.837809 C659.221093,615.03991 647.135322,628.2414 631.507533,635.535102 L341.775191,770.874106 C326.153634,778.181128 308.266123,778.984142 292.051771,773.106312 C275.837419,767.228482 262.625947,755.151842 255.32673,739.535861 L42.1305255,283.832301 C34.8179791,268.222548 34.0143579,250.348552 39.8966323,234.14645 C45.7789066,217.944349 57.8646778,204.742859 73.4924672,197.449157 L363.306058,62.1101526 C395.816761,46.9480165 434.473386,60.9745296 449.67327,93.4483984 L662.869474,549.151958 Z" id="Path" fill="#FFFFFF"></path>
                    <path d="M662.864677,548.221757 L458.445964,111 L441.126479,111 C405.22605,112.062395 376.979961,142.025275 378.02826,177.933316 L392.827069,681.681747 C393.415478,702.256009 403.774738,721.317247 420.717132,733 L631.478192,634.75523 C647.118211,627.448836 659.213441,614.224371 665.100318,597.994074 C670.987196,581.763777 670.182946,563.858676 662.864677,548.221757 L662.864677,548.221757 Z" id="Path" fill="#EAEAEA"></path>
                    <path d="M444.115489,382.502482 C426.886769,346.373823 352.933301,326.158011 312.787133,309.433283 C307.200026,306.4721 300.570716,306.199687 294.759055,308.692469 C288.947393,311.185251 284.579459,316.174685 282.880676,322.260987 C268.82139,363.585678 233.06367,433.894486 250.861263,471.322154 C262.643908,493.603745 287.564148,505.638425 312.361825,501.022494 C337.159503,496.406563 356.068946,476.213264 359.028367,451.18753 C375.95232,462.420964 397.516023,464.021271 415.91565,455.409306 C429.418431,449.576472 440.010282,438.569881 445.312722,424.861146 C450.615163,411.152411 450.183797,395.890461 444.115489,382.502482 L444.115489,382.502482 Z" id="Path" fill="#5A94F3"></path>
                    <path d="M381.824653,508.993431 C375.502023,509.024083 369.736833,505.345909 367.049757,499.567092 L341.883725,445.05826 C339.08174,439.708932 339.426211,433.236076 342.779783,428.220719 C346.133354,423.205362 351.950571,420.463248 357.911838,421.087785 C363.873104,421.712322 369.008828,425.601929 371.271156,431.20564 L396.518369,486.042344 C398.326621,490.017841 398.486174,494.55818 396.961526,498.653082 C395.436878,502.747984 392.354513,506.057735 388.400294,507.845877 C386.305842,508.666254 384.070314,509.056389 381.824653,508.993431 L381.824653,508.993431 Z" id="Path" fill="#5A94F3"></path>
                    <path d="M358.816973,534.989555 C351.412476,535.013026 344.989397,529.900323 343.378969,522.701068 C341.768542,515.501814 345.404802,508.156321 352.118795,505.046025 L410.523638,478.031753 C418.293195,475.092171 427.022598,478.631263 430.523132,486.139987 C434.023666,493.648711 431.105866,502.575641 423.838309,506.592023 L365.433465,533.850399 C363.33094,534.682369 361.077862,535.07028 358.816973,534.989555 L358.816973,534.989555 Z" id="Path" fill="#5A94F3"></path>
                    <path d="M121.083721,347.837374 C116.950548,347.867247 113.453447,344.787852 112.957561,340.68183 L100.036967,234.893619 C99.7109788,231.476599 101.564482,228.222783 104.668878,226.762319 C107.843626,225.280764 111.609882,226.001721 114.013962,228.551205 L187.636972,306.042493 C190.787676,309.214004 190.787676,314.336114 187.636972,317.507626 C184.467465,320.660322 179.348593,320.660322 176.179086,317.507626 L119.295966,257.742571 L129.047358,339.05557 C129.525242,343.468061 126.378788,347.448853 121.977599,348 L121.083721,347.837374 Z" id="Path" fill="#5A94F3"></path>
                    <path d="M122.883082,310.999999 C119.173907,310.942976 115.990193,308.389088 115.189499,304.828418 C114.388805,301.267748 116.180791,297.632649 119.51991,296.044042 L150.669285,281.717809 C154.65085,279.923611 159.360076,281.606974 161.239252,285.496156 C163.117956,289.430537 161.397324,294.117152 157.395628,295.965326 L126.326329,310.291559 C125.240781,310.759275 124.068323,311.000506 122.883082,310.999999 Z" id="Path" fill="#5A94F3"></path>
                    <path d="M314.300614,786.999798 C285.828189,786.974034 259.916192,770.544853 247.736153,744.795425 L33.9821449,287.296774 C25.6797508,269.67387 24.7428388,249.466216 31.3789419,231.149961 C38.015045,212.833706 51.6763933,197.920745 69.3368953,189.71441 L359.814776,53.8309677 C369.481675,49.3074223 380.027509,46.9749947 390.699386,47.0002022 C419.190408,47.0408421 445.107275,63.5047724 457.263847,89.2858933 L671.017855,546.703226 C679.320249,564.32613 680.257161,584.533784 673.621058,602.850039 C666.984955,621.166294 653.323607,636.079255 635.663105,644.28559 L345.185224,780.169032 C335.518325,784.692578 324.972491,787.025005 314.300614,786.999798 L314.300614,786.999798 Z M390.699386,63.2639295 C382.274944,63.2246542 373.946927,65.0577952 366.316799,68.6309596 L76.2452948,204.514402 C62.5067059,210.887329 51.8743641,222.477423 46.7029189,236.71793 C41.5314736,250.958437 42.2476965,266.674164 48.6929721,280.38469 L262.772082,738.208616 C272.367582,758.12504 292.527898,770.771478 314.625716,770.73607 C322.916928,770.750338 331.10725,768.91695 338.601926,765.36904 L628.510879,629.485598 C642.235048,623.097783 652.849295,611.501372 658.004938,597.262379 C663.16058,583.023385 662.432544,567.315788 655.981927,553.61531 L442.471744,95.7913843 C432.919514,75.8741253 412.779186,63.2203918 390.699386,63.2639295 Z" id="Shape" fill="#343936"></path>
                    <path d="M180.981711,193 C177.226129,192.940982 174.002582,190.297793 173.19187,186.612618 C172.381159,182.927443 174.195565,179.165236 177.576461,177.52108 L368.837994,87.091601 C371.503823,85.5449542 374.811387,85.6486612 377.376061,87.3593076 C379.940736,89.0699541 381.320091,92.0924374 380.936696,95.1614746 C380.553301,98.2305118 378.473294,100.816665 375.567416,101.837309 L183.981574,191.940916 C183.060989,192.489437 182.041432,192.849386 180.981711,193 L180.981711,193 Z" id="Path" fill="#D9DBDA"></path>
                    <path d="M318.544294,748.999364 C301.839366,749.089398 286.570998,739.609742 279.304021,724.636297 L148.775047,446.572488 C146.861031,442.513418 148.614003,437.678275 152.690916,435.771528 C156.768499,433.866202 161.625694,435.611216 163.541137,439.669619 L294.070111,717.327377 C300.33866,730.686718 316.293856,736.465571 329.720837,730.239802 L370.511142,711.31782 C374.570202,709.511763 379.334592,711.273752 381.224507,715.279888 C383.114422,719.286025 381.43384,724.060917 377.445493,726.016871 L336.655189,744.938853 C330.989914,747.596675 324.807173,748.982862 318.544294,748.999364 Z" id="Path" fill="#D9DBDA"></path>
                    <path d="M425.276443,407.992537 C421.584282,408.150693 418.254496,405.781056 417.186162,402.235101 C408.529562,373.691192 343.483707,351.958898 319.212865,346.039281 C316.394745,345.358465 314.153065,343.222425 313.332244,340.435787 C312.511422,337.64915 313.236162,334.63527 315.23346,332.529449 C317.230758,330.423627 320.197177,329.545788 323.015297,330.226604 C332.885439,332.659324 420.098663,355.121433 432.638598,397.531843 C433.954413,401.808608 431.56462,406.345241 427.299013,407.668174 C426.641256,407.861747 425.961621,407.970742 425.276443,407.992537 Z" id="Path" fill="#FFFFFF"></path>
                    <path d="M887.972337,606.756639 C888.475271,623.979928 882.103261,640.696653 870.25948,653.225644 C858.415699,665.754636 842.071407,673.068443 824.825761,673.5565 L504.704318,682.97179 C468.822207,684.018209 438.880964,655.822783 437.819335,619.986745 L423.028245,117.242713 C421.980493,81.4062682 450.211848,51.5031298 486.093551,50.4428525 L805.971185,41.0275623 C823.230119,40.5254671 839.980203,46.9004331 852.527499,58.7465724 C865.074795,70.5927117 872.388667,86.9369824 872.856168,104.17494 L887.972337,606.756639 Z" id="Path" fill="#FFFFFF"></path>
                    <path d="M750.898034,342.317784 C759.89239,353.208039 760.393282,368.796571 752.116598,380.241361 L675.834537,477.689525 C672.212105,482.745068 666.433326,485.816747 660.214876,485.992073 C653.996425,486.167399 648.053631,483.426203 644.151892,478.5828 L562.101966,385.682216 C553.10761,374.791961 552.606718,359.203429 560.883402,347.758639 L637.165463,250.310475 C640.787895,245.254932 646.566674,242.183253 652.785124,242.007927 C659.003575,241.832601 664.946369,244.573797 668.848108,249.4172 L750.898034,342.317784 Z" id="Path" fill="#F74541"></path>
                    <path d="M479.493137,94.5674518 C479.579388,92.6189519 478.892606,90.7172881 477.588244,89.2929002 C476.283882,87.8685123 474.47223,87.0418401 472.563354,87 C468.572566,87.4280264 465.660969,91.05533 466.031836,95.137045 L468.501068,193.432548 C468.407279,197.401252 471.393873,200.739407 475.271545,201 L475.271545,201 C477.233154,200.835479 479.047518,199.871768 480.30606,198.325886 C481.564602,196.780005 482.161511,194.781921 481.962369,192.781585 L479.493137,94.5674518 Z" id="Path" fill="#F74541"></path>
                    <path d="M479.716567,159.999157 C477.752917,160.023013 475.832645,159.422451 474.233948,158.284474 C472.460539,157.055495 471.301325,155.125896 471.050862,152.98599 C470.8004,150.846083 471.4828,148.701875 472.924666,147.098209 L523.577521,89.9421103 C526.752765,86.5099663 532.009822,86.0170926 535.770212,88.7989884 C537.5395,90.0119209 538.69814,91.9277133 538.948955,94.0549899 C539.19977,96.1822664 538.518359,98.3140631 537.079494,99.9036017 L486.426638,157.0597 C484.721648,158.962268 482.274175,160.034424 479.716567,159.999157 L479.716567,159.999157 Z" id="Path" fill="#F74541"></path>
                    <path d="M537.464148,201.997788 C534.76556,202.058062 532.185971,200.883946 530.453172,198.806698 L489.69168,148.567492 C488.334441,146.913122 487.753212,144.752025 488.096638,142.636889 C488.440064,140.521753 489.674842,138.657686 491.485186,137.521413 C495.363838,134.961045 500.534673,135.697443 503.550587,139.239692 L544.312079,189.478898 C545.666689,191.119427 546.246948,193.268417 545.90302,195.370956 C545.559092,197.473494 544.324694,199.32346 542.518573,200.443154 C541.025499,201.454765 539.265575,201.99608 537.464148,201.997788 Z" id="Path" fill="#F74541"></path>
                    <path d="M503.537895,688.999992 C464.029353,689.017788 431.664443,657.601306 430.479191,618.082216 L416.029803,115.565191 C414.891412,75.304176 446.506518,41.7049218 486.734393,40.4232172 L807.462105,31.0000076 C846.970647,30.9822121 879.335557,62.3986936 880.520809,101.917784 L894.970197,604.434809 C896.108588,644.695824 864.493482,678.295078 824.265607,679.576783 L503.537895,688.999992 Z M807.462105,47.2469208 L805.676225,47.2469208 L487.221451,56.5888959 C455.929248,57.605081 431.354065,83.7599169 432.26507,115.077783 L446.957987,617.676043 C447.922788,648.381205 473.08311,672.768255 503.781424,672.753079 L505.323775,672.753079 L823.859725,663.32987 C855.08728,662.26984 879.600983,636.178131 878.73493,604.922217 L864.042013,102.323957 C863.080392,71.7131206 838.065891,47.3630526 807.462105,47.2469208 Z" id="Shape" fill="#343936"></path>
                    <path d="M853.241379,587 C848.956411,587 845.482759,583.351445 845.482759,578.850724 L843,488.149276 C843,483.648555 846.473653,480 850.758621,480 C855.043589,480 858.517241,483.648555 858.517241,488.149276 L861,578.850724 C861,583.351445 857.526347,587 853.241379,587 Z" id="Path" fill="#D9DBDA"></path>
                    <path d="M846.060651,105.184027 C845.765332,93.6925488 840.912105,82.7899719 832.570362,74.8786345 C824.396143,66.9754044 813.380995,62.6992514 802.014042,63.0164704 L591.126681,69.353791 C586.638439,69.353791 583,72.9913744 583,77.4785609 C583,81.9657475 586.638439,85.6033309 591.126681,85.6033309 L591.126681,85.6033309 L802.420376,79.2660103 C809.484406,79.138113 816.315172,81.7938974 821.436809,86.659551 C826.50971,91.6366162 829.427564,98.4044458 829.56349,105.509017 L838.746639,415.87523 C838.746639,420.362417 842.385078,424 846.873319,424 L846.873319,424 C851.361561,424 855,420.362417 855,415.87523 L846.060651,105.184027 Z" id="Path" fill="#D9DBDA"></path>
                    <path d="M716.374411,355.999659 C713.871814,356.021942 711.482118,354.952672 709.82155,353.06758 L646.072728,279.765618 C644.583721,278.097477 643.843855,275.885006 644.027587,273.649898 C644.211319,271.41479 645.302387,269.354869 647.043522,267.955858 C650.71177,265.009543 656.022123,265.437244 659.17845,268.933217 L722.927272,342.235179 C724.416279,343.90332 725.156145,346.115791 724.972413,348.350899 C724.788681,350.586008 723.697613,352.645929 721.956478,354.04494 C720.368167,355.311955 718.400876,356.000857 716.374411,355.999659 L716.374411,355.999659 Z" id="Path" fill="#FFFFFF"></path>
                    <path d="M85.6520999,92.9949607 C83.4994878,93.0074586 81.4304914,92.15882 79.9021473,90.6365075 L28.39553,38.9131882 C26.8623769,37.386158 26,35.3074998 26,33.1390441 C26,30.9705883 26.8623769,28.8919301 28.39553,27.3648999 C31.554258,24.2117 36.6557219,24.2117 39.8144499,27.3648999 L91.6450082,79.1695452 C94.7849973,82.3415628 94.7849973,87.4644899 91.6450082,90.6365075 C90.057627,92.220329 87.8884135,93.0740028 85.6520999,92.9949607 Z" id="Path" fill="#5A94F3"></path>
                    <path d="M60.0283452,135 L58.4046085,135 L6.68859335,124.424075 C3.78806703,123.857313 1.40961559,121.783019 0.449178679,118.982559 C-0.511258233,116.182099 0.0922325914,113.08093 2.032322,110.847232 C3.97241141,108.613534 6.95435367,107.586659 9.85487999,108.153421 L61.652082,118.56664 C66.1359072,119.015941 69.4072798,123.022482 68.9588973,127.515499 C68.5105148,132.008516 64.5121704,135.286595 60.0283452,134.837293 L60.0283452,135 Z" id="Path" fill="#5A94F3"></path>
                    <path d="M127.468736,67.9752324 C123.539305,68.0540726 120.114484,65.3281683 119.329237,61.4967935 L109.154865,9.83124394 C108.278277,5.35881523 111.21184,1.02619954 115.707161,0.154075947 C120.202481,-0.71804765 124.557274,2.20057631 125.433861,6.67300501 L135.852419,58.3385546 C136.698206,62.719842 133.822941,66.9564615 129.422215,67.8132714 C128.785927,67.9824638 128.124395,68.0373108 127.468736,67.9752324 Z" id="Path" fill="#5A94F3"></path>
                </g>
            </g>
        </g>
    </g>
</svg>